<?xml version="1.0" encoding="utf-8"?>
<!-- Generator: Adobe Illustrator 22.1.0, SVG Export Plug-In . SVG Version: 6.00 Build 0)  -->
<svg version="1.1" id="Layer_1" xmlns="http://www.w3.org/2000/svg" xmlns:xlink="http://www.w3.org/1999/xlink" x="0px" y="0px"
	 viewBox="0 0 81 81" style="enable-background:new 0 0 81 81;" xml:space="preserve">
<style type="text/css">
	.st0{fill:#FFD907;}
</style>
<path class="st0" d="M70.7,34.6c2-1.1,3.2-3.4,3.2-5.7v-7.5c0-4.7-3-7.7-6.7-7.7H13.8c-3.7,0-6.6,3-6.6,6.7V29
	c0,2.3,1.1,4.6,3.1,5.6c2.1,1.2,3.5,3.4,3.5,5.9s-1.4,4.7-3.5,5.8S7.1,49.7,7.1,52v7.5c0,4.7,3,7.7,6.7,7.7h53.4
	c3.7,0,6.7-3,6.7-6.7V52c0-2.3-1.1-4.6-3.2-5.7c-2.1-1.1-3.5-3.3-3.5-5.9S68.6,35.8,70.7,34.6z M40.5,58.5c-2.1,0-3.7-1.7-3.7-3.7
	c0-2.1,1.7-3.7,3.7-3.7s3.7,1.7,3.7,3.7S42.6,58.5,40.5,58.5z M40.5,44.2c-2.1,0-3.7-1.7-3.7-3.7s1.7-3.7,3.7-3.7s3.7,1.7,3.7,3.7
	S42.6,44.2,40.5,44.2z M40.5,30c-2.1,0-3.7-1.7-3.7-3.7c0-2.1,1.7-3.7,3.7-3.7s3.7,1.7,3.7,3.7S42.6,30,40.5,30z"/>
</svg>
